<?xml version="1.0" standalone="no"?><svg xmlns="http://www.w3.org/2000/svg" viewBox="0 0 1440 320"><path fill="#0099ff" fill-opacity="0.4" d="M0,320L30,314.7C60,309,120,299,180,298.7C240,299,300,309,360,282.7C420,256,480,192,540,186.7C600,181,660,235,720,250.7C780,267,840,245,900,218.7C960,192,1020,160,1080,165.3C1140,171,1200,213,1260,240C1320,267,1380,277,1410,282.7L1440,288L1440,320L1410,320C1380,320,1320,320,1260,320C1200,320,1140,320,1080,320C1020,320,960,320,900,320C840,320,780,320,720,320C660,320,600,320,540,320C480,320,420,320,360,320C300,320,240,320,180,320C120,320,60,320,30,320L0,320Z"></path></svg>