<svg xmlns="http://www.w3.org/2000/svg" enable-background="new 0 0 24 24" viewBox="0 0 24 24"><path fill="#303c42" d="M18.506,10.323C18.071,9.507,17.225,9,16.3,9H7.7C6.776,9,5.93,9.507,5.494,10.323l-3.2,6 C2.102,16.685,2,17.092,2,17.5V21c0,1.103,0.897,2,2,2h16c1.103,0,2-0.897,2-2v-3.5c0-0.408-0.102-0.815-0.294-1.177L18.506,10.323 z"/><path fill="#546e7a" d="M21,21c0,0.551-0.448,1-1,1H4c-0.552,0-1-0.449-1-1v-3.5c0-0.245,0.062-0.489,0.177-0.706l3.2-6 C6.638,10.304,7.146,10,7.7,10h8.6c0.555,0,1.063,0.304,1.323,0.794l3.2,6C20.939,17.011,21,17.255,21,17.5V21z"/><path d="M20,21H4c-0.552,0-1-0.449-1-1v1c0,0.551,0.448,1,1,1h16c0.552,0,1-0.449,1-1v-1 C21,20.551,20.552,21,20,21z" opacity=".1"/><circle cx="12" cy="16" r="4" fill="#303c42"/><circle cx="12" cy="16" r="3" fill="#ffca28"/><path d="M9.5,16.5c0-1.654,1.346-3,3-3c0.7,0,1.336,0.251,1.846,0.654C13.797,13.457,12.955,13,12,13 c-1.654,0-3,1.346-3,3c0,0.955,0.457,1.797,1.154,2.346C9.751,17.836,9.5,17.2,9.5,16.5z" opacity=".1"/><path fill="#303c42" d="M23.59,6.048C20.495,2.793,16.379,1,11.999,1C7.62,1,3.504,2.793,0.41,6.048 C0.137,6.334,0,6.711,0,7.087C0,7.463,0.137,7.84,0.41,8.126l2.305,2.425c0.542,0.569,1.504,0.569,2.046,0 C5.532,9.74,6.408,9.072,7.361,8.567c0.478-0.246,0.786-0.764,0.782-1.254l0.349-2.628c2.512-0.804,4.529-0.803,7.017,0 l0.344,2.563c0,0.554,0.294,1.06,0.774,1.324c0.958,0.507,1.834,1.176,2.606,1.986C19.504,10.843,19.867,11,20.256,11 c0.388,0,0.751-0.157,1.022-0.442l2.312-2.432c0.264-0.277,0.402-0.639,0.41-1.003C24.009,6.735,23.871,6.344,23.59,6.048z"/><path d="M7.361 12.236c.478-.246.786-.764.782-1.254L8.273 10H7.7c-.555 0-1.063.304-1.323.794L4.43 14.445c.116-.065.236-.125.331-.224C5.532 13.41 6.408 12.741 7.361 12.236zM17.623 10.794C17.363 10.304 16.855 10 16.3 10h-.571l.123.917c0 .554.294 1.06.774 1.324.958.507 1.834 1.176 2.606 1.986.108.114.234.201.367.272L17.623 10.794z" opacity=".1"/><path fill="#546e7a" d="M22.865,7.437l-2.312,2.432c-0.162,0.169-0.436,0.169-0.596,0c-0.846-0.889-1.809-1.623-2.856-2.177 c-0.156-0.086-0.249-0.252-0.253-0.51l-0.39-2.938c-0.025-0.188-0.154-0.346-0.333-0.407c-1.458-0.5-2.785-0.749-4.115-0.749 c-1.33,0-2.663,0.25-4.134,0.749c-0.18,0.061-0.31,0.219-0.335,0.408L7.147,7.247c0,0.183-0.098,0.356-0.249,0.434 C5.845,8.239,4.882,8.973,4.036,9.862c-0.161,0.169-0.436,0.168-0.597,0L1.135,7.437c-0.181-0.189-0.181-0.51,0-0.7 C4.038,3.682,7.897,2,11.999,2s7.961,1.682,10.866,4.737C23.046,6.927,23.046,7.248,22.865,7.437z"/><path fill="#fff" d="M1.135,7.241c2.904-3.055,6.762-4.737,10.865-4.737s7.961,1.682,10.866,4.737 c0.027,0.029,0.042,0.064,0.061,0.098c0.107-0.189,0.092-0.441-0.061-0.602C19.961,3.682,16.102,2,11.999,2 S4.038,3.682,1.135,6.737C0.981,6.898,0.966,7.15,1.073,7.339C1.092,7.306,1.107,7.27,1.135,7.241z" opacity=".2"/><circle cx="12" cy="14" r=".5" opacity=".2"/><circle cx="12" cy="18" r=".5" opacity=".2"/><circle cx="14" cy="16" r=".5" opacity=".2"/><circle cx="10" cy="16" r=".5" opacity=".2"/><circle cx="13.414" cy="14.586" r=".5" opacity=".2" transform="rotate(-45.001 13.414 14.586)"/><circle cx="10.586" cy="17.414" r=".5" opacity=".2" transform="rotate(-45.001 10.586 17.414)"/><circle cx="13.414" cy="17.414" r=".5" opacity=".2" transform="rotate(-45.001 13.414 17.414)"/><circle cx="10.586" cy="14.586" r=".5" opacity=".2" transform="rotate(-45.001 10.586 14.586)"/><linearGradient id="a" x1="12.074" x2="19.197" y1="16.074" y2="23.197" gradientUnits="userSpaceOnUse"><stop offset="0" stop-opacity=".1"/><stop offset="1" stop-opacity="0"/></linearGradient><path fill="url(#a)" d="M15,13.361l-0.01,0.009C15.611,14.075,16,14.989,16,16c0,2.206-1.794,4-4,4 c-1.065,0-2.029-0.425-2.746-1.106L12.36,22h7.632l0.516-0.159C20.797,21.666,21,21.362,21,21v-1.639L15,13.361z"/><linearGradient id="b" x1="-.311" x2="23.389" y1="7.413" y2="18.465" gradientUnits="userSpaceOnUse"><stop offset="0" stop-color="#fff" stop-opacity=".2"/><stop offset="1" stop-color="#fff" stop-opacity="0"/></linearGradient><path fill="url(#b)" d="M18.506,10.323C18.071,9.507,17.225,9,16.3,9H7.7C6.776,9,5.93,9.507,5.494,10.323l-3.2,6 C2.102,16.685,2,17.092,2,17.5V21c0,1.103,0.897,2,2,2h16c1.103,0,2-0.897,2-2v-3.5c0-0.408-0.102-0.815-0.294-1.177L18.506,10.323 z M23.59,6.048C20.495,2.793,16.379,1,11.999,1C7.62,1,3.504,2.793,0.41,6.048C0.137,6.334,0,6.711,0,7.087S0.137,7.84,0.41,8.126 l2.305,2.425c0.542,0.569,1.504,0.569,2.046,0C5.532,9.74,6.408,9.072,7.361,8.567c0.478-0.246,0.786-0.764,0.782-1.254 l0.349-2.628c2.512-0.804,4.529-0.803,7.017,0l0.344,2.563c0,0.554,0.294,1.06,0.774,1.324c0.958,0.507,1.834,1.176,2.606,1.986 C19.504,10.843,19.867,11,20.256,11c0.388,0,0.751-0.157,1.022-0.442l2.312-2.432c0.264-0.277,0.402-0.639,0.41-1.003 C24.009,6.735,23.871,6.344,23.59,6.048z"/></svg>