<svg xmlns="http://www.w3.org/2000/svg" xmlns:svgjs="http://svgjs.com/svgjs" xmlns:xlink="http://www.w3.org/1999/xlink" id="freepik_stories-typing" class="animated" version="1.1" viewBox="0 0 500 500"><style>@keyframes slideUp{0%{opacity:0;transform:translateY(30px)}}@keyframes zoomOut{0%{opacity:0;transform:scale(1.5)}}@keyframes slideRight{0%{opacity:0;transform:translateX(30px)}}svg#freepik_stories-typing:not(.animated) .animable{opacity:0}svg#freepik_stories-typing.animated #freepik--Device--inject-1--inject-143,svg#freepik_stories-typing.animated #freepik--Plant--inject-1--inject-143{animation:1s 1 forwards cubic-bezier(.36,-.01,.5,1.38) slideUp;animation-delay:0s}svg#freepik_stories-typing.animated #freepik--Notebook--inject-1--inject-143{animation:1s 1 forwards cubic-bezier(.36,-.01,.5,1.38) zoomOut;animation-delay:0s}svg#freepik_stories-typing.animated #freepik--Character--inject-1--inject-143{animation:1s 1 forwards cubic-bezier(.36,-.01,.5,1.38) slideRight;animation-delay:0s}.animator-hidden{display:none}</style><g style="transform-origin:80.2153px 147.3px" id="freepik--Plant--inject-1--inject-143" class="animable"><circle id="elds0e59i7z7b" cx="85.77" cy="160.73" r="34.53" class="animable" style="fill:#fff;stroke:#2e353a;stroke-linecap:round;stroke-linejoin:round;transform-origin:85.77px 160.73px"/><circle id="elpc9epg531lo" cx="83.2" cy="157.3" r="34.53" class="animable" style="fill:#fff;stroke:#2e353a;stroke-linecap:round;stroke-linejoin:round;transform-origin:83.2px 157.3px"/><circle id="eljuh8fyjg5cl" cx="83.2" cy="157.3" r="31.1" class="animable" style="fill:#2e353a;stroke:#2e353a;stroke-linecap:round;stroke-linejoin:round;transform-origin:83.2px 157.3px"/><path id="elduoaljxxlnp" d="M79.55,133.92s-3.43-8.58-9.43-14.58-30.46-9.87-30.46-9.87a89.68,89.68,0,0,1,10.73,12.44c5.57,7.72,24,25.31,24,25.31s-9-7.72-17.16-8.58-28.74,3.43-30,3.43,7.72,3.43,14.16,6.43,31.31,5.58,31.31,5.58-10.72,3-18,5.58S40.52,181.1,40.52,181.1s9.44-8.58,17.59-10.72,19.73-6,19.73-6-7.29,8.15-9,13.73-.43,18.44-.43,18.44,3.86-12,8.58-16.73S86.84,167,86.84,167a118,118,0,0,1,6.44,12c3.43,7.29,5.57,18,5.57,18s5.58-12,5.15-18-6.86-16.73-6.86-16.73,4.29-3,10.72-.43,17.59,13.3,17.59,13.3-2.58-14.16-6.87-19.73-22.73-7.3-22.73-7.3,10.3-6,16.73-7.29,15,1.72,15,1.72-9.86-13.73-17.58-14.59S90.7,139.07,90.7,139.07l3.44-17.16c.85-4.29-.86-15-.86-15s-4.72,2.57-10.3,10.72A21.36,21.36,0,0,0,79.55,133.92Z" class="animable" style="fill:#90caf9;transform-origin:77.3453px 151.955px"/><g id="el4lih3hue92x"><path id="elmpuvrzjwp5i" d="M79.55,133.92s-3.43-8.58-9.43-14.58-30.46-9.87-30.46-9.87a89.68,89.68,0,0,1,10.73,12.44c5.57,7.72,24,25.31,24,25.31s-9-7.72-17.16-8.58-28.74,3.43-30,3.43,7.72,3.43,14.16,6.43,31.31,5.58,31.31,5.58-10.72,3-18,5.58S40.52,181.1,40.52,181.1s9.44-8.58,17.59-10.72,19.73-6,19.73-6-7.29,8.15-9,13.73-.43,18.44-.43,18.44,3.86-12,8.58-16.73S86.84,167,86.84,167a118,118,0,0,1,6.44,12c3.43,7.29,5.57,18,5.57,18s5.58-12,5.15-18-6.86-16.73-6.86-16.73,4.29-3,10.72-.43,17.59,13.3,17.59,13.3-2.58-14.16-6.87-19.73-22.73-7.3-22.73-7.3,10.3-6,16.73-7.29,15,1.72,15,1.72-9.86-13.73-17.58-14.59S90.7,139.07,90.7,139.07l3.44-17.16c.85-4.29-.86-15-.86-15s-4.72,2.57-10.3,10.72A21.36,21.36,0,0,0,79.55,133.92Z" class="animable" style="opacity:.5;transform-origin:77.3453px 151.955px"/></g><path id="elb84ljafdez7" d="M88,120.86c.3-1.23.63-2.46,1-3.67" class="animable" style="fill:none;stroke:#2e353a;stroke-linecap:round;stroke-linejoin:round;stroke-width:.5px;transform-origin:88.5px 119.025px"/><path id="elvojanxqy0ug" d="M59.35,120.86c4,2.93,9,7,11.62,10.49,4.72,6.43,14.16,20.16,14.16,20.16A127.55,127.55,0,0,1,87.31,124" class="animable" style="fill:none;stroke:#2e353a;stroke-linecap:round;stroke-linejoin:round;stroke-width:.5px;transform-origin:73.33px 136.185px"/><path id="el98iwncboyav" d="M53.39,116.76s1.25.8,3.12,2.09" class="animable" style="fill:none;stroke:#2e353a;stroke-linecap:round;stroke-linejoin:round;stroke-width:.5px;transform-origin:54.95px 117.805px"/><path id="el6rjhi5tdfya" d="M85.13,151.51s16.3-16.3,23.16-17.59,12.87,3.86,12.87,3.86" class="animable" style="fill:none;stroke:#2e353a;stroke-linecap:round;stroke-linejoin:round;stroke-width:.5px;transform-origin:103.145px 142.611px"/><path id="elpcyogiv8lki" d="M56,165.14c-4,2.52-4.33,4-4.33,4" class="animable" style="fill:none;stroke:#2e353a;stroke-linecap:round;stroke-linejoin:round;stroke-width:.5px;transform-origin:53.835px 167.14px"/><path id="elrjdvsj227ml" d="M120.73,166.52s-2.57-6.44-11.58-9.44S86,153.65,86,153.65s-19.85,6.5-27.11,9.89" class="animable" style="fill:none;stroke:#2e353a;stroke-linecap:round;stroke-linejoin:round;stroke-width:.5px;transform-origin:89.81px 160.085px"/><path id="elt33pq3xdg9e" d="M77.32,151.2c4.8,1.4,8.67,2.45,8.67,2.45" class="animable" style="fill:none;stroke:#2e353a;stroke-linecap:round;stroke-linejoin:round;stroke-width:.5px;transform-origin:81.655px 152.425px"/><path id="ely8pyzcv269" d="M47.11,143.58c4.66.28,10.66.92,14,2.35,2.72,1.17,8.08,2.86,13.14,4.37" class="animable" style="fill:none;stroke:#2e353a;stroke-linecap:round;stroke-linejoin:round;stroke-width:.5px;transform-origin:60.68px 146.94px"/><path id="elzh4xs9oje4e" d="M40.52,143.36s1.57,0,3.88.09" class="animable" style="fill:none;stroke:#2e353a;stroke-linecap:round;stroke-linejoin:round;stroke-width:.5px;transform-origin:42.46px 143.405px"/><path id="elnzm5p7szicn" d="M85.13,156.22s-12,18-12.87,22.31a43.68,43.68,0,0,0-.86,7.72" class="animable" style="fill:none;stroke:#2e353a;stroke-linecap:round;stroke-linejoin:round;stroke-width:.5px;transform-origin:78.265px 171.235px"/><path id="elm44oa8woqk" d="M90.47,161.89c2.31,3,5.08,7,6.24,10.2a70.38,70.38,0,0,1,3,12" class="animable" style="fill:none;stroke:#2e353a;stroke-linecap:round;stroke-linejoin:round;stroke-width:.5px;transform-origin:95.09px 172.99px"/><path id="elj1tp87el1ud" d="M86.84,157.51s1,1.06,2.29,2.69" class="animable" style="fill:none;stroke:#2e353a;stroke-linecap:round;stroke-linejoin:round;stroke-width:.5px;transform-origin:87.985px 158.855px"/><path id="el4pisn3hcbkb" d="M74.1,137.62s-2.21-9-.84-17.35,19-25.78,19-25.78a90.2,90.2,0,0,0-1.45,16.36c0,9.52-4.75,34.56-4.75,34.56s2.81-11.52,8.93-17,25.35-14,26.39-14.73-4.27,7.29-7.74,13.49S91.44,150,91.44,150s10.46-3.82,17.88-6,24,9.16,24,9.16-12.67-1.46-20.54,1.55-19.53,6.63-19.53,6.63,10.68,2.37,15.32,5.9S119.69,182,119.69,182s-10.14-7.51-16.73-8.59-15.52-4.69-15.52-4.69a120.64,120.64,0,0,0,1.78,13.5c1.47,7.93,6,17.89,6,17.89s-11.53-6.5-14.69-11.63-4.18-17.59-4.18-17.59-5.24.06-9,5.9-6.53,21.06-6.53,21.06-6.16-13-5.93-20,14.21-19.18,14.21-19.18-11.86,1.13-17.84,3.83-11.2,10.15-11.2,10.15,0-16.9,5.78-22.1,22.19-2.2,22.19-2.2l-12.8-11.93c-3.2-3-8.06-12.7-8.06-12.7s5.34-.66,14.62,2.71A21.31,21.31,0,0,1,74.1,137.62Z" class="animable" style="fill:#90caf9;transform-origin:86.69px 147.3px"/><path id="elxtthdz2yf6" d="M59.62,131.94c-1-.83-1.94-1.63-2.94-2.41" class="animable" style="fill:none;stroke:#2e353a;stroke-linecap:round;stroke-linejoin:round;stroke-width:.5px;transform-origin:58.15px 130.735px"/><path id="elatzk6ftavn" d="M82.89,115.23c-1.55,4.72-3.28,10.93-3.32,15.29-.08,8,.26,24.63.26,24.63A127.12,127.12,0,0,0,62,134.09" class="animable" style="fill:none;stroke:#2e353a;stroke-linecap:round;stroke-linejoin:round;stroke-width:.5px;transform-origin:72.445px 135.19px"/><path id="elko9nydaz0ms" d="M85.35,108.42s-.56,1.38-1.32,3.51" class="animable" style="fill:none;stroke:#2e353a;stroke-linecap:round;stroke-linejoin:round;stroke-width:.5px;transform-origin:84.69px 110.175px"/><path id="elo2mwa09tofi" d="M79.83,155.15s-22.75-3.73-29.07-.77S42.56,165,42.56,165" class="animable" style="fill:none;stroke:#2e353a;stroke-linecap:round;stroke-linejoin:round;stroke-width:.5px;transform-origin:61.195px 159.119px"/><path id="elrwo0ck602zq" d="M111.45,149.23c4.69-.26,5.81.69,5.81.69" class="animable" style="fill:none;stroke:#2e353a;stroke-linecap:round;stroke-linejoin:round;stroke-width:.5px;transform-origin:114.355px 149.552px"/><path id="el7hvmk31d3l8" d="M59.67,188.11s-1.66-6.73,3.9-14.42S80.39,157.4,80.39,157.4s19.91-6.31,27.78-7.78" class="animable" style="fill:none;stroke:#2e353a;stroke-linecap:round;stroke-linejoin:round;stroke-width:.5px;transform-origin:83.804px 168.865px"/><path id="el9gpdyfedci7" d="M86,150.35c-3.08,3.93-5.6,7.05-5.6,7.05" class="animable" style="fill:none;stroke:#2e353a;stroke-linecap:round;stroke-linejoin:round;stroke-width:.5px;transform-origin:83.2px 153.875px"/><path id="ello1bzisaoaq" d="M106.09,126.54c-3.62,3-8.12,7-10,10.07-1.53,2.54-4.9,7-8.13,11.21" class="animable" style="fill:none;stroke:#2e353a;stroke-linecap:round;stroke-linejoin:round;stroke-width:.5px;transform-origin:97.025px 137.18px"/><path id="elj2w2q01gvgj" d="M111.31,122.51s-1.27.92-3.1,2.34" class="animable" style="fill:none;stroke:#2e353a;stroke-linecap:round;stroke-linejoin:round;stroke-width:.5px;transform-origin:109.76px 123.68px"/><path id="el2psgcrmueu8" d="M82.58,159s20.27,7.62,23.46,10.61a43.42,43.42,0,0,1,5.2,5.77" class="animable" style="fill:none;stroke:#2e353a;stroke-linecap:round;stroke-linejoin:round;stroke-width:.5px;transform-origin:96.91px 167.19px"/><path id="elzsoosi5aoq" d="M81.55,166.7c-.14,3.78-.07,8.63.88,11.93A69.72,69.72,0,0,0,87,190.14" class="animable" style="fill:none;stroke:#2e353a;stroke-linecap:round;stroke-linejoin:round;stroke-width:.5px;transform-origin:84.2474px 178.42px"/><path id="el6ll8fzuba43" d="M81.94,161s-.16,1.42-.28,3.52" class="animable" style="fill:none;stroke:#2e353a;stroke-linecap:round;stroke-linejoin:round;stroke-width:.5px;transform-origin:81.8px 162.76px"/></g><g style="transform-origin:253.489px 222.1px" id="freepik--Device--inject-1--inject-143" class="animable"><path id="el6z2ts9kt9uc" d="M140.83,183.43H367.5a10.67,10.67,0,0,1,10.67,10.67v147a11.67,11.67,0,0,1-11.67,11.67H141.83a11.67,11.67,0,0,1-11.67-11.67v-147a10.67,10.67,0,0,1,10.67-10.67Z" class="animable" style="fill:#fff;stroke:#2e353a;stroke-linecap:round;stroke-linejoin:round;transform-origin:254.165px 268.1px"/><rect id="el29eheeiub4y" width="13.96" height="9.17" x="209.83" y="200.1" class="animable" style="fill:#2e353a;transform-origin:216.81px 204.685px"/><rect id="elecqqsknmx8a" width="12.96" height="12.86" x="165.6" y="256.67" class="animable" style="fill:#2e353a;transform-origin:172.08px 263.1px"/><rect id="el9r1ts441gki" width="13.06" height="12.86" x="222.76" y="211.47" class="animable" style="fill:#2e353a;transform-origin:229.29px 217.9px"/><rect id="ellk39s249ukq" width="13.96" height="9.17" x="193.66" y="200.1" class="animable" style="fill:#2e353a;transform-origin:200.64px 204.685px"/><rect id="el0vuz53vsshm" width="13.06" height="12.86" x="238.02" y="211.47" class="animable" style="fill:#2e353a;transform-origin:244.55px 217.9px"/><rect id="elxy9hwjk8mji" width="13.96" height="9.17" x="225.99" y="200.1" class="animable" style="fill:#2e353a;transform-origin:232.97px 204.685px"/><rect id="elu49iq4ti4g" width="24.56" height="12.86" x="146.17" y="241.6" class="animable" style="fill:#2e353a;transform-origin:158.45px 248.03px"/><rect id="elumpbg990mi" width="13.06" height="12.86" x="192.23" y="211.47" class="animable" style="fill:#2e353a;transform-origin:198.76px 217.9px"/><rect id="elrj606cckhj" width="17.23" height="12.86" x="146.17" y="256.67" class="animable" style="fill:#2e353a;transform-origin:154.785px 263.1px"/><rect id="elkifhak4jpbg" width="13.96" height="9.17" x="242.16" y="200.1" class="animable" style="fill:#2e353a;transform-origin:249.14px 204.685px"/><rect id="elswbpspyp8sc" width="13.06" height="12.86" x="161.7" y="211.47" class="animable" style="fill:#2e353a;transform-origin:168.23px 217.9px"/><rect id="elczoru0dvh5k" width="13.96" height="9.17" x="161.33" y="200.1" class="animable" style="fill:#2e353a;transform-origin:168.31px 204.685px"/><rect id="eltxl4e64ut1p" width="13.96" height="9.17" x="177.5" y="200.1" class="animable" style="fill:#2e353a;transform-origin:184.48px 204.685px"/><rect id="elyklurwzt5a" width="13.06" height="12.86" x="176.96" y="211.47" class="animable" style="fill:#2e353a;transform-origin:183.49px 217.9px"/><rect id="eltjf8mj8df7" width="13.06" height="12.86" x="207.49" y="211.47" class="animable" style="fill:#2e353a;transform-origin:214.02px 217.9px"/><rect id="elwqg74vn4znb" width="13.96" height="9.17" x="306.83" y="200.1" class="animable" style="fill:#2e353a;transform-origin:313.81px 204.685px"/><rect id="eli76l1noiy6i" width="13.96" height="9.17" x="322.99" y="200.1" class="animable" style="fill:#2e353a;transform-origin:329.97px 204.685px"/><rect id="ellvdlx6wik0c" width="13.06" height="12.86" x="314.35" y="211.47" class="animable" style="fill:#2e353a;transform-origin:320.88px 217.9px"/><rect id="elhnppblb0due" width="13.06" height="12.86" x="329.62" y="211.47" class="animable" style="fill:#2e353a;transform-origin:336.15px 217.9px"/><rect id="el3wl9wjsh0ad" width="19.23" height="12.86" x="347.6" y="256.67" class="animable" style="fill:#2e353a;transform-origin:357.215px 263.1px"/><rect id="el86bvpasmp7j" width="13.96" height="9.17" x="339.16" y="200.1" class="animable" style="fill:#2e353a;transform-origin:346.14px 204.685px"/><rect id="ely308ikf54jc" width="13.33" height="12.86" x="146.17" y="211.47" class="animable" style="fill:#2e353a;transform-origin:152.835px 217.9px"/><rect id="elxqjlyr7b4dc" width="13.96" height="9.17" x="258.33" y="200.1" class="animable" style="fill:#2e353a;transform-origin:265.31px 204.685px"/><rect id="elkgp7d52kwzr" width="13.96" height="9.17" x="274.49" y="200.1" class="animable" style="fill:#2e353a;transform-origin:281.47px 204.685px"/><rect id="elbsvsp6if524" width="13.06" height="12.86" x="268.56" y="211.47" class="animable" style="fill:#2e353a;transform-origin:275.09px 217.9px"/><rect id="elrtk87twb61" width="13.06" height="12.86" x="299.09" y="211.47" class="animable" style="fill:#2e353a;transform-origin:305.62px 217.9px"/><rect id="el6ns7fyf4ipc" width="13.06" height="12.86" x="253.29" y="211.47" class="animable" style="fill:#2e353a;transform-origin:259.82px 217.9px"/><rect id="el5htmbnn4cx8" width="13.06" height="12.86" x="283.82" y="211.47" class="animable" style="fill:#2e353a;transform-origin:290.35px 217.9px"/><rect id="elwe8zbqgfx" width="13.96" height="9.17" x="290.66" y="200.1" class="animable" style="fill:#2e353a;transform-origin:297.64px 204.685px"/><rect id="ele5kpl90t6bw" width="12.96" height="12.86" x="271.77" y="256.67" class="animable" style="fill:#2e353a;transform-origin:278.25px 263.1px"/><rect id="elz6jtg3me01" width="12.96" height="12.86" x="339.77" y="241.6" class="animable" style="fill:#2e353a;transform-origin:346.25px 248.03px"/><rect id="eljxytos4hfj" width="12.96" height="12.86" x="324.6" y="241.6" class="animable" style="fill:#2e353a;transform-origin:331.08px 248.03px"/><rect id="elvphrvdbndrc" width="12.96" height="12.86" x="332.43" y="256.67" class="animable" style="fill:#2e353a;transform-origin:338.91px 263.1px"/><rect id="elcy6n2mt3ap5" width="12.96" height="12.86" x="317.27" y="256.67" class="animable" style="fill:#2e353a;transform-origin:323.75px 263.1px"/><rect id="elrz9tgelk2xm" width="12.96" height="12.86" x="286.93" y="256.67" class="animable" style="fill:#2e353a;transform-origin:293.41px 263.1px"/><rect id="el25oya71pnvu" width="12.96" height="12.86" x="302.1" y="256.67" class="animable" style="fill:#2e353a;transform-origin:308.58px 263.1px"/><rect id="elt3wnk7czxod" width="12.96" height="12.86" x="309.43" y="241.6" class="animable" style="fill:#2e353a;transform-origin:315.91px 248.03px"/><rect id="el49laa7mvuzt" width="12.96" height="12.86" x="294.27" y="241.6" class="animable" style="fill:#2e353a;transform-origin:300.75px 248.03px"/><rect id="elbrq8a10xwer" width="11.51" height="9.17" x="355.33" y="200.1" class="animable" style="fill:#2e353a;transform-origin:361.085px 204.685px"/><rect id="elrtnr270gk6" width="12.96" height="9.17" x="146.17" y="200.1" class="animable" style="fill:#2e353a;transform-origin:152.65px 204.685px"/><rect id="elybvbs7eu2d" width="220.67" height="13.37" x="146.17" y="271.73" class="animable" style="fill:#2e353a;transform-origin:256.505px 278.415px"/><rect id="elb8i0yviyr89" width="21.95" height="12.86" x="344.88" y="211.47" class="animable" style="fill:#2e353a;transform-origin:355.855px 217.9px"/><rect id="elq3x843ja9yr" width="11.9" height="12.86" x="354.93" y="241.6" class="animable" style="fill:#2e353a;transform-origin:360.88px 248.03px"/><polygon id="elufcojke50i" points="351.27 239.3 349.06 239.3 349.06 226.54 336.1 226.54 336.1 239.3 333.9 239.3 333.9 226.54 320.94 226.54 320.94 239.3 318.73 239.3 318.73 226.54 305.77 226.54 305.77 239.3 303.56 239.3 303.56 226.54 290.6 226.54 290.6 239.3 288.4 239.3 288.4 226.54 275.44 226.54 275.44 239.3 273.23 239.3 273.23 226.54 260.27 226.54 260.27 239.3 258.06 239.3 258.06 226.54 245.1 226.54 245.1 239.3 242.9 239.3 242.9 226.54 229.94 226.54 229.94 239.3 227.73 239.3 227.73 226.54 214.77 226.54 214.77 239.3 212.56 239.3 212.56 226.54 199.6 226.54 199.6 239.3 197.4 239.3 197.4 226.54 184.44 226.54 184.44 239.3 182.23 239.3 182.23 226.54 169.27 226.54 169.27 239.3 167.06 239.3 167.06 226.54 146.17 226.54 146.17 239.4 366.83 239.4 366.83 226.54 351.27 226.54 351.27 239.3" class="animable" style="fill:#2e353a;transform-origin:256.5px 232.97px"/><rect id="el54p2fhjeeir" width="12.96" height="12.86" x="233.6" y="241.6" class="animable" style="fill:#2e353a;transform-origin:240.08px 248.03px"/><rect id="elc1cdyb9z2yq" width="12.96" height="12.86" x="279.1" y="241.6" class="animable" style="fill:#2e353a;transform-origin:285.58px 248.03px"/><rect id="elpbiq1aztw19" width="12.96" height="12.86" x="203.27" y="241.6" class="animable" style="fill:#2e353a;transform-origin:209.75px 248.03px"/><rect id="elt82tw0l3xhr" width="12.96" height="12.86" x="211.1" y="256.67" class="animable" style="fill:#2e353a;transform-origin:217.58px 263.1px"/><rect id="elpf460g6tuti" width="12.96" height="12.86" x="218.43" y="241.6" class="animable" style="fill:#2e353a;transform-origin:224.91px 248.03px"/><rect id="elwz0k7hknaab" width="12.96" height="12.86" x="188.1" y="241.6" class="animable" style="fill:#2e353a;transform-origin:194.58px 248.03px"/><rect id="elf6wegitckw9" width="12.96" height="12.86" x="180.77" y="256.67" class="animable" style="fill:#2e353a;transform-origin:187.25px 263.1px"/><rect id="elsf5bmgnhyei" width="12.96" height="12.86" x="195.93" y="256.67" class="animable" style="fill:#2e353a;transform-origin:202.41px 263.1px"/><rect id="elt9qn69r2kvf" width="12.96" height="12.86" x="248.77" y="241.6" class="animable" style="fill:#2e353a;transform-origin:255.25px 248.03px"/><rect id="elgqpbvh2od9c" width="12.96" height="12.86" x="256.6" y="256.67" class="animable" style="fill:#2e353a;transform-origin:263.08px 263.1px"/><rect id="elmezxuttktqq" width="12.96" height="12.86" x="263.93" y="241.6" class="animable" style="fill:#2e353a;transform-origin:270.41px 248.03px"/><rect id="el0560c247i8o5" width="12.96" height="12.86" x="226.27" y="256.67" class="animable" style="fill:#2e353a;transform-origin:232.75px 263.1px"/><rect id="elf5l6aklcvum" width="12.96" height="12.86" x="241.43" y="256.67" class="animable" style="fill:#2e353a;transform-origin:247.91px 263.1px"/><rect id="elbv7bwkdhksc" width="12.96" height="12.86" x="172.93" y="241.6" class="animable" style="fill:#2e353a;transform-origin:179.41px 248.03px"/><path id="elk8wj73c79ye" d="M392.33,91.43H114.67a8.88,8.88,0,0,0-8.57,11.18l20.3,75.58a8.88,8.88,0,0,0,8.57,6.58h28.34V190H345v-5.2h27a8.88,8.88,0,0,0,8.57-6.58l20.3-75.58A8.88,8.88,0,0,0,392.33,91.43Z" class="animable" style="fill:#2e353a;stroke:#2e353a;stroke-linecap:round;stroke-linejoin:round;transform-origin:253.489px 140.715px"/><polygon id="elx6jxjtwlves" points="360.93 178.1 146.07 178.1 124.58 100.77 382.41 100.77 360.93 178.1" class="animable" style="fill:#90caf9;stroke:#2e353a;stroke-linecap:round;stroke-linejoin:round;transform-origin:253.495px 139.435px"/><path id="elk0ks2kd1fl8" d="M160.33,144.16v1h-3.79v-1Z" class="animable" style="fill:#2e353a;transform-origin:158.435px 144.66px"/><path id="el8a5tb00cgil" d="M165.05,144.16v1h-3.8v-1Z" class="animable" style="fill:#2e353a;transform-origin:163.15px 144.66px"/><path id="elf43zptgkslq" d="M169.77,144.16v1H166v-1Z" class="animable" style="fill:#2e353a;transform-origin:167.885px 144.66px"/><path id="el81mqn7eogll" d="M174.48,144.16v1h-3.79v-1Z" class="animable" style="fill:#2e353a;transform-origin:172.585px 144.66px"/><path id="ele8l7pj9rbg" d="M179.2,144.16v1h-3.8v-1Z" class="animable" style="fill:#2e353a;transform-origin:177.3px 144.66px"/><path id="el645opcjsorw" d="M183.92,144.16v1h-3.8v-1Z" class="animable" style="fill:#2e353a;transform-origin:182.02px 144.66px"/><path id="elyyxvrtfhkbl" d="M188.63,144.16v1h-3.79v-1Z" class="animable" style="fill:#2e353a;transform-origin:186.735px 144.66px"/><path id="el07jz7he6p3q" d="M193.3,149.43l-4.18-11.14h1l4.18,11.14Z" class="animable" style="fill:#2e353a;transform-origin:191.71px 143.86px"/><path id="elyf442425dg" d="M156.51,127.94v1h-3.79v-1Z" class="animable" style="fill:#2e353a;transform-origin:154.615px 128.44px"/><path id="elnku5mu0ngj" d="M161.23,127.94v1h-3.79v-1Z" class="animable" style="fill:#2e353a;transform-origin:159.335px 128.44px"/><path id="eldbbig25l8kk" d="M166,127.94v1h-3.8v-1Z" class="animable" style="fill:#2e353a;transform-origin:164.1px 128.44px"/><path id="elyrgnwran0ai" d="M170.67,127.94v1h-3.8v-1Z" class="animable" style="fill:#2e353a;transform-origin:168.77px 128.44px"/><path id="elf1xqbeeelnc" d="M175.38,127.94v1h-3.79v-1Z" class="animable" style="fill:#2e353a;transform-origin:173.485px 128.44px"/><path id="elnr9q7pdsrq" d="M183.36,127.94v1h-3.8v-1Z" class="animable" style="fill:#2e353a;transform-origin:181.46px 128.44px"/><path id="el3atj1rgu7t7" d="M188.07,127.94v1h-3.79v-1Z" class="animable" style="fill:#2e353a;transform-origin:186.175px 128.44px"/><path id="elfm1kinda03" d="M192.79,127.94v1H189v-1Z" class="animable" style="fill:#2e353a;transform-origin:190.895px 128.44px"/><path id="el1297f3lgqg8f" d="M197.51,127.94v1h-3.8v-1Z" class="animable" style="fill:#2e353a;transform-origin:195.61px 128.44px"/><path id="el6gwbadfo6ai" d="M202.22,127.94v1h-3.79v-1Z" class="animable" style="fill:#2e353a;transform-origin:200.325px 128.44px"/><path id="eladyl3r4lvsh" d="M206.94,127.94v1h-3.79v-1Z" class="animable" style="fill:#2e353a;transform-origin:205.045px 128.44px"/><path id="els8vjj7frel" d="M211.66,127.94v1h-3.8v-1Z" class="animable" style="fill:#2e353a;transform-origin:209.76px 128.44px"/><path id="elb0yqm7o7c2" d="M219.63,127.94v1h-3.79v-1Z" class="animable" style="fill:#2e353a;transform-origin:217.735px 128.44px"/><path id="elplvhyvn4kl" d="M224.35,127.94v1h-3.8v-1Z" class="animable" style="fill:#2e353a;transform-origin:222.45px 128.44px"/><path id="elfhikurh8il" d="M229.07,127.94v1h-3.8v-1Z" class="animable" style="fill:#2e353a;transform-origin:227.17px 128.44px"/><path id="el0cjkpf2u8rmm" d="M237,127.94v1h-3.79v-1Z" class="animable" style="fill:#2e353a;transform-origin:235.105px 128.44px"/><path id="elekdhi386lr4" d="M241.76,127.94v1H238v-1Z" class="animable" style="fill:#2e353a;transform-origin:239.88px 128.44px"/><path id="el8gb8hpj1z5p" d="M246.48,127.94v1h-3.8v-1Z" class="animable" style="fill:#2e353a;transform-origin:244.58px 128.44px"/><path id="elezbjs1dc7ji" d="M264.22,127.94v1h-3.79v-1Z" class="animable" style="fill:#2e353a;transform-origin:262.325px 128.44px"/><path id="elvj2fpbihwe" d="M268.94,127.94v1h-3.8v-1Z" class="animable" style="fill:#2e353a;transform-origin:267.04px 128.44px"/><path id="eloo2ljsnjb18" d="M273.66,127.94v1h-3.8v-1Z" class="animable" style="fill:#2e353a;transform-origin:271.76px 128.44px"/><path id="el3mp2ws91r6n" d="M278.37,127.94v1h-3.79v-1Z" class="animable" style="fill:#2e353a;transform-origin:276.475px 128.44px"/><path id="el5f39vrx1j2" d="M283.09,127.94v1h-3.8v-1Z" class="animable" style="fill:#2e353a;transform-origin:281.19px 128.44px"/><path id="el25pf80t8dl2" d="M291.06,127.94v1h-3.79v-1Z" class="animable" style="fill:#2e353a;transform-origin:289.165px 128.44px"/><path id="elwb5bkd1c4lk" d="M295.78,127.94v1H292v-1Z" class="animable" style="fill:#2e353a;transform-origin:293.89px 128.44px"/><path id="el6dbyz7hz85g" d="M300.5,127.94v1h-3.8v-1Z" class="animable" style="fill:#2e353a;transform-origin:298.6px 128.44px"/><path id="elwyb537yqbl" d="M308.47,127.94v1h-3.79v-1Z" class="animable" style="fill:#2e353a;transform-origin:306.575px 128.44px"/><path id="el3v48q36o8s5" d="M316.45,127.94v1h-3.8v-1Z" class="animable" style="fill:#2e353a;transform-origin:314.55px 128.44px"/></g><g style="transform-origin:420.949px 305.07px" id="freepik--Notebook--inject-1--inject-143" class="animable"><polygon id="elhvg6uydezr5" points="379.69 292.29 368.99 333.57 379.11 336.54 379.69 292.29" class="animable" style="fill:#fff;stroke:#2e353a;stroke-linecap:round;stroke-linejoin:round;transform-origin:374.34px 314.415px"/><path id="elttvafy1nnnq" d="M384.49,248.66a8.55,8.55,0,0,1-1.23-6.28c.55-4.07,5.46-5,5.46-5s1.07-.81,5,.68,34.32,5.61,53.74,8.24,25.71.93,25.44,7.6-17.31,66.53-17.57,68.41S384.49,248.66,384.49,248.66Z" class="animable" style="fill:#fff;stroke:#2e353a;stroke-miterlimit:10;transform-origin:428.007px 279.752px"/><g id="el5qu4fx2o7s5"><rect id="elv89yfrv2acd" width="82.44" height="98.27" x="377.51" y="253.75" class="animable" style="fill:#fff;stroke:#2e353a;stroke-linecap:round;stroke-linejoin:round;transform-origin:418.73px 302.885px;transform:rotate(7.72deg)"/></g><line id="elbigjk90lfwb" x1="450.99" x2="455.74" y1="279.16" y2="279.81" class="animable" style="fill:none;stroke:#2e353a;stroke-linecap:round;stroke-linejoin:round;stroke-width:.5px;transform-origin:453.365px 279.485px"/><line id="el5pnk9w66g5b" x1="421.24" x2="447.23" y1="275.13" y2="278.66" class="animable" style="fill:none;stroke:#2e353a;stroke-linecap:round;stroke-linejoin:round;stroke-width:.5px;transform-origin:434.235px 276.895px"/><line id="elhtpaef5jcna" x1="389.74" x2="417.48" y1="270.86" y2="274.62" class="animable" style="fill:none;stroke:#2e353a;stroke-linecap:round;stroke-linejoin:round;stroke-width:.5px;transform-origin:403.61px 272.74px"/><line id="elb9rdilib34a" x1="443.55" x2="454.57" y1="286.97" y2="288.47" class="animable" style="fill:none;stroke:#2e353a;stroke-linecap:round;stroke-linejoin:round;stroke-width:.5px;transform-origin:449.06px 287.72px"/><line id="el8efnw7hbcrl" x1="388.57" x2="432.28" y1="279.52" y2="285.44" class="animable" style="fill:none;stroke:#2e353a;stroke-linecap:round;stroke-linejoin:round;stroke-width:.5px;transform-origin:410.425px 282.48px"/><line id="elho3k7yqt3h5" x1="410.75" x2="453.4" y1="291.34" y2="297.12" class="animable" style="fill:none;stroke:#2e353a;stroke-linecap:round;stroke-linejoin:round;stroke-width:.5px;transform-origin:432.075px 294.23px"/><line id="el04m9ltyop30m" x1="387.39" x2="406.36" y1="288.17" y2="290.75" class="animable" style="fill:none;stroke:#2e353a;stroke-linecap:round;stroke-linejoin:round;stroke-width:.5px;transform-origin:396.875px 289.46px"/><line id="elbl7oots797l" x1="424.92" x2="452.22" y1="302.08" y2="305.78" class="animable" style="fill:none;stroke:#2e353a;stroke-linecap:round;stroke-linejoin:round;stroke-width:.5px;transform-origin:438.57px 303.93px"/><line id="elbixuj69q55b" x1="401.75" x2="421.79" y1="298.93" y2="301.65" class="animable" style="fill:none;stroke:#2e353a;stroke-linecap:round;stroke-linejoin:round;stroke-width:.5px;transform-origin:411.77px 300.29px"/><line id="elrwgtt9z1yzd" x1="386.22" x2="398.3" y1="296.83" y2="298.47" class="animable" style="fill:none;stroke:#2e353a;stroke-linecap:round;stroke-linejoin:round;stroke-width:.5px;transform-origin:392.26px 297.65px"/><line id="elwr71g3wr6b" x1="441.28" x2="451.05" y1="313.11" y2="314.43" class="animable" style="fill:none;stroke:#2e353a;stroke-linecap:round;stroke-linejoin:round;stroke-width:.5px;transform-origin:446.165px 313.77px"/><line id="el6lwdx6223no" x1="385.05" x2="434.71" y1="305.49" y2="312.22" class="animable" style="fill:none;stroke:#2e353a;stroke-linecap:round;stroke-linejoin:round;stroke-width:.5px;transform-origin:409.88px 308.855px"/><line id="el14duds19b2t" x1="422.26" x2="449.88" y1="319.34" y2="323.09" class="animable" style="fill:none;stroke:#2e353a;stroke-linecap:round;stroke-linejoin:round;stroke-width:.5px;transform-origin:436.07px 321.215px"/><line id="eligytqgbf31m" x1="383.87" x2="417.56" y1="314.14" y2="318.71" class="animable" style="fill:none;stroke:#2e353a;stroke-linecap:round;stroke-linejoin:round;stroke-width:.5px;transform-origin:400.715px 316.425px"/><line id="elp3bw2e0ichq" x1="430.79" x2="448.7" y1="329.32" y2="331.74" class="animable" style="fill:none;stroke:#2e353a;stroke-linecap:round;stroke-linejoin:round;stroke-width:.5px;transform-origin:439.745px 330.53px"/><line id="elyano33lgj3" x1="394.47" x2="426.41" y1="324.39" y2="328.72" class="animable" style="fill:none;stroke:#2e353a;stroke-linecap:round;stroke-linejoin:round;stroke-width:.5px;transform-origin:410.44px 326.555px"/><line id="elg84kh36uxpl" x1="382.7" x2="390.71" y1="322.8" y2="323.88" class="animable" style="fill:none;stroke:#2e353a;stroke-linecap:round;stroke-linejoin:round;stroke-width:.5px;transform-origin:386.705px 323.34px"/><path id="elc6wnqaoa1a7" d="M466.18,259.74s1.4-13.58,6.4-8.12" class="animable" style="fill:none;stroke:#2e353a;stroke-linecap:round;stroke-linejoin:round;transform-origin:469.38px 255.033px"/><polygon id="eld6ddp2swdr8" points="438.48 364.35 438.39 372.98 433.36 365.88 413.17 297.97 418.29 296.44 438.48 364.35" class="animable" style="fill:#fff;stroke:#2e353a;stroke-linecap:round;stroke-linejoin:round;transform-origin:425.825px 334.71px"/><g id="el9ly9js8x0vk"><rect id="elogiku8cl40k" width="2.91" height="70.85" x="424.37" y="295.74" class="animable" style="fill:#90caf9;stroke:#2e353a;stroke-linecap:round;stroke-linejoin:round;stroke-width:.5px;transform-origin:425.825px 331.165px;transform:rotate(-16.2602deg)"/></g><polygon id="elt0ia5l99b1" points="438.48 364.37 433.37 365.89 438.39 372.98 438.48 364.37" class="animable" style="fill:none;stroke:#2e353a;stroke-linecap:round;stroke-linejoin:round;transform-origin:435.925px 368.675px"/><polygon id="el683swt98vh2" points="435.88 369.43 438.39 372.98 438.44 368.67 435.88 369.43" class="animable" style="fill:#2e353a;stroke:#2e353a;stroke-linecap:round;stroke-linejoin:round;transform-origin:437.16px 370.825px"/><path id="eljaa7xrylyik" d="M413.47,289.6h0a2.68,2.68,0,0,0-1.8,3.32l1.5,5.05,5.12-1.52-1.5-5.05A2.68,2.68,0,0,0,413.47,289.6Z" class="animable" style="fill:#fff;stroke:#2e353a;stroke-linecap:round;stroke-linejoin:round;transform-origin:414.926px 293.731px"/><path id="elom9fhd7a2im" d="M413.47,289.6h0a2.68,2.68,0,0,0-1.8,3.32l.72,2.41,5.11-1.52-.71-2.41A2.68,2.68,0,0,0,413.47,289.6Z" class="animable" style="fill:#2e353a;stroke:#2e353a;stroke-linecap:round;stroke-linejoin:round;transform-origin:414.531px 292.411px"/></g><g style="transform-origin:250.665px 338.966px" id="freepik--Character--inject-1--inject-143" class="animable animator-hidden"><path id="el4syc7qdmopf" d="M161.65,249.49c-.64.9-1.27,1.84-1.9,2.83" class="animable" style="fill:none;stroke:#fff;stroke-linecap:round;stroke-linejoin:round;transform-origin:160.7px 250.905px"/><path id="el1pd8lqmr668" d="M172.11,237.45a72.17,72.17,0,0,0-7.71,8.37" class="animable" style="fill:none;stroke:#fff;stroke-linecap:round;stroke-linejoin:round;transform-origin:168.255px 241.635px"/><path id="eljybpbo4srla" d="M160.76,242.76a106.63,106.63,0,0,0-7.41,12" class="animable" style="fill:none;stroke:#fff;stroke-linecap:round;stroke-linejoin:round;transform-origin:157.055px 248.76px"/><path id="eltfr1j4q6mg" d="M231.29,264.75c-.63.9-1.27,1.84-1.9,2.82" class="animable" style="fill:none;stroke:#fff;stroke-linecap:round;stroke-linejoin:round;transform-origin:230.34px 266.16px"/><path id="el5eef21hucd8" d="M241.75,252.71a72.71,72.71,0,0,0-7.7,8.37" class="animable" style="fill:none;stroke:#fff;stroke-linecap:round;stroke-linejoin:round;transform-origin:237.9px 256.895px"/><path id="elvvhu563uylb" d="M230.41,258A108.21,108.21,0,0,0,223,270.06" class="animable" style="fill:none;stroke:#fff;stroke-linecap:round;stroke-linejoin:round;transform-origin:226.705px 264.03px"/><path id="elt61kvyyavkh" d="M331.11,240c-.91-.62-1.87-1.24-2.86-1.86" class="animable" style="fill:none;stroke:#fff;stroke-linecap:round;stroke-linejoin:round;transform-origin:329.68px 239.07px"/><path id="eld5ik8lo45gv" d="M343.31,250.28a73.41,73.41,0,0,0-8.49-7.57" class="animable" style="fill:none;stroke:#fff;stroke-linecap:round;stroke-linejoin:round;transform-origin:339.065px 246.495px"/><path id="el5n2xlghis0e" d="M337.83,239a108.34,108.34,0,0,0-12.16-7.23" class="animable" style="fill:none;stroke:#fff;stroke-linecap:round;stroke-linejoin:round;transform-origin:331.75px 235.385px"/><path id="elfj6c6o6ax89" d="M228.25,302c-.52,3.76-1.3,9-2.08,12.11" class="animable" style="fill:none;stroke:#2e353a;stroke-linecap:round;stroke-linejoin:round;transform-origin:227.21px 308.055px"/><path id="eltyva4mlff4p" d="M228.83,297.43s-.08.71-.23,1.86" class="animable" style="fill:none;stroke:#2e353a;stroke-linecap:round;stroke-linejoin:round;transform-origin:228.715px 298.36px"/><path id="eluo88k464lbn" d="M231.5,308.1a84.55,84.55,0,0,1-4,10.67" class="animable" style="fill:none;stroke:#2e353a;stroke-linecap:round;stroke-linejoin:round;transform-origin:229.5px 313.435px"/><path id="eld1e5e25z967" d="M281.5,313.43s.67,8.67,5.33,13.34" class="animable" style="fill:none;stroke:#2e353a;stroke-linecap:round;stroke-linejoin:round;transform-origin:284.165px 320.1px"/><path id="elypjjkvwhv4" d="M280.83,322.1s2,6,6,8.67" class="animable" style="fill:none;stroke:#2e353a;stroke-linecap:round;stroke-linejoin:round;transform-origin:283.83px 326.435px"/><path id="elc7jd2ytnfbp" d="M145,368.44s4.44-3.57,4.44-34.26,5.11-53.11,11.41-62.94,12.19-13.77,14.95-13.77.78,3.54-3.15,8.65-7.47,7.87-9.05,14.17-1.57,14.16.4,13.37,5.11-16.52,7.86-22.42,9.45-13.38,13.38-16.92,12.59-14.16,16.52-11.41,1.58,6.69-.78,8.26-11.81,11-16.13,16.92-7.08,20.85-4.72,21.24,9.44-21.63,13.37-26.35,19.67-17.71,23.21-18.1,3.94,5.11.79,7.87-13.77,14.55-17.31,21.63-5.12,20.07-2,16.92,8.26-16.13,12.59-20.46,17.31-18.09,20.46-16.52,2.36,5.51-.39,8.26-13.38,17.71-16.13,25.57-5.91,29.9-4.33,26.76,6.69-19.28,9.44-26,8.26-9.83,9.05-6.69-.79,4.72-2.76,11.81-2,26-7.86,36.58-29.38,33.22-32.52,41.08a107.12,107.12,0,0,1-8.12,15.6" class="animable" style="fill:#90caf9;mix-blend-mode:multiply;transform-origin:189.14px 314.875px"/><path id="el0xwhhi91z05" d="M363.55,371.1S359,364.87,359,334.18s-5.12-53.11-11.41-62.94-12.2-13.77-14.95-13.77-.79,3.54,3.15,8.65,7.47,7.87,9,14.17,1.58,14.16-.39,13.37-5.11-16.52-7.87-22.42-9.44-13.38-13.37-16.92-12.59-14.16-16.53-11.41-1.57,6.69.79,8.26,11.8,11,16.13,16.92,7.08,20.85,4.72,21.24S318.86,267.7,314.93,263s-19.68-17.71-23.22-18.1-3.93,5.11-.78,7.87,13.77,14.55,17.31,21.63,5.11,20.07,2,16.92-8.26-16.13-12.58-20.46-17.31-18.09-20.46-16.52-2.36,5.51.39,8.26,13.38,17.71,16.13,25.57,5.9,29.9,4.33,26.76-6.69-19.28-9.44-26-8.26-9.83-9.05-6.69.79,4.72,2.75,11.81,2,26,7.87,36.58,28.72,31.23,31.87,39.1S330.9,390,330.9,390" class="animable" style="fill:#90caf9;mix-blend-mode:multiply;transform-origin:319.355px 316.23px"/><path id="el5a7wca8z97o" d="M143.5,376s5.9-19.27,5.9-50,5.11-53.11,11.41-62.94,12.19-13.77,14.95-13.77.78,3.54-3.15,8.65-7.47,7.87-9.05,14.16-1.57,14.17.4,13.38,5.11-16.52,7.86-22.42,9.45-13.38,13.38-16.92,12.59-14.16,16.52-11.41,1.58,6.69-.78,8.26-11.81,11-16.13,16.92-7.08,20.85-4.72,21.24,9.44-21.63,13.37-26.36,19.67-17.7,23.21-18.09,3.94,5.11.79,7.87-13.77,14.55-17.31,21.63-5.12,20.07-2,16.92,8.26-16.13,12.59-20.46,17.31-18.09,20.46-16.52,2.36,5.51-.39,8.26-13.38,17.7-16.13,25.57-5.91,29.9-4.33,26.75,6.69-19.27,9.44-26,8.26-9.84,9.05-6.69-.79,4.72-2.76,11.8-2,26-7.86,36.59-28.72,39.34-31.87,47.21-10.23,25.18-10.23,25.18" class="animable" style="fill:#fff;stroke:#2e353a;stroke-linecap:round;stroke-linejoin:round;transform-origin:188.37px 314.545px"/><path id="el73gyn5chy3" d="M364.89,376s-5.9-19.27-5.9-50-5.12-53.11-11.41-62.94-12.2-13.77-14.95-13.77-.79,3.54,3.15,8.65,7.47,7.87,9,14.16,1.58,14.17-.39,13.38-5.11-16.52-7.87-22.42-9.44-13.38-13.37-16.92-12.59-14.16-16.53-11.41-1.57,6.69.79,8.26,11.8,11,16.13,16.92,7.08,20.85,4.72,21.24-9.44-21.63-13.37-26.36-19.68-17.7-23.22-18.09-3.93,5.11-.78,7.87,13.77,14.55,17.31,21.63,5.11,20.07,2,16.92-8.26-16.13-12.58-20.46-17.31-18.09-20.46-16.52-2.36,5.51.39,8.26,13.38,17.7,16.13,25.57,5.9,29.9,4.33,26.75-6.69-19.27-9.44-26-8.26-9.84-9.05-6.69.79,4.72,2.75,11.8,2,26,7.87,36.59,28.72,39.34,31.87,47.21,10.23,25.18,10.23,25.18" class="animable" style="fill:#fff;stroke:#2e353a;stroke-linecap:round;stroke-linejoin:round;transform-origin:320.005px 314.545px"/><path id="el14ppjd7rxu8" d="M118.6,436h60c.78-3,1.76-6.36,3-10,4.72-14.14,20-31.82,20-31.82A103.42,103.42,0,0,0,163.84,373c-23-7.08-39.84-5-39.84-5a92.57,92.57,0,0,1,1,39C122,421.56,120,430.77,118.6,436Z" class="animable" style="fill:#2e353a;stroke:#2e353a;stroke-linecap:round;stroke-linejoin:round;transform-origin:160.1px 401.858px"/><path id="elak8mw99mnft" d="M329.4,436h62.34c-2-5.18-6.32-16.43-10.64-27.68-5.9-15.32-3.54-35.94-5.9-35.94s-28.87-1.77-41.83,2.35-27.7,15.91-27.7,15.91A130.27,130.27,0,0,1,322.76,416,87.71,87.71,0,0,1,329.4,436Z" class="animable" style="fill:#2e353a;stroke:#2e353a;stroke-linecap:round;stroke-linejoin:round;transform-origin:348.705px 404.001px"/><path id="eli26zcy5va0m" d="M156.08,380.2c-.43-1.7-6.83.86-6.83.86s2.14-8.1-1.27-8.1-3.84,6-3.84,6-6.4-2.55-6.4,1.28S142,384,142,384s-5.12,6.4-1.28,7.67,6.39-3.41,6.39-3.41,2.56,4.27,6,2.56.85-5.54.85-5.54S156.5,381.91,156.08,380.2Zm-8.53,6.4a1.75,1.75,0,1,1,2.13-1.71A2,2,0,0,1,147.55,386.6ZM165.46,428c-.43-1.7-6.83.86-6.83.86s2.14-8.1-1.28-8.1-3.83,6-3.83,6-6.4-2.56-6.4,1.27,4.27,3.84,4.27,3.84-5.12,6.4-1.28,7.68,6.39-3.42,6.39-3.42,2.56,4.27,6,2.56.85-5.54.85-5.54S165.88,429.66,165.46,428Zm-8.53,6.4a1.75,1.75,0,1,1,2.13-1.71A1.95,1.95,0,0,1,156.93,434.35Zm-29,0c-.43-1.71-6.82.85-6.82.85s2.13-8.1-1.28-8.1-3.84,6-3.84,6-6.4-2.56-6.4,1.28,4.27,3.84,4.27,3.84-5.12,6.39-1.28,7.67,6.39-3.41,6.39-3.41,2.56,4.26,6,2.56.86-5.54.86-5.54S128.36,436.05,127.94,434.35Zm-8.53,6.39a1.75,1.75,0,1,1,2.13-1.7A1.95,1.95,0,0,1,119.41,440.74Zm55-39.65h4.69c3.41,0,5.54,3.84,5.54,3.84C177.39,407.06,174.41,401.09,174.41,401.09Zm-4.69,33.26h4.69c3.41,0,5.54,3.84,5.54,3.84C172.7,440.32,169.72,434.35,169.72,434.35ZM128.79,428h4.69c3.41,0,5.54,3.84,5.54,3.84C131.77,433.92,128.79,428,128.79,428Zm22.67-30.09,2.74,3.81c2,2.78.11,6.74.11,6.74C148.35,403.77,151.46,397.86,151.46,397.86ZM128,410.65l2.14-4.17c1.57-3,5.95-3.18,5.95-3.18C134.62,410.72,128,410.65,128,410.65Z" class="animable" style="fill:#fff;transform-origin:147.11px 409.561px"/><path id="elzxl3wvl67f" d="M356.89,388.3c-.43-1.7-6.83.86-6.83.86s2.14-8.1-1.27-8.1-3.84,6-3.84,6-6.4-2.55-6.4,1.28,4.27,3.84,4.27,3.84-5.12,6.4-1.28,7.68,6.39-3.42,6.39-3.42,2.56,4.27,6,2.56.85-5.54.85-5.54S357.31,390,356.89,388.3Zm-8.53,6.4a1.75,1.75,0,1,1,2.13-1.71A1.95,1.95,0,0,1,348.36,394.7Zm28.56,26.86c-.42-1.71-6.82.85-6.82.85s2.13-8.1-1.28-8.1-3.83,6-3.83,6-6.4-2.56-6.4,1.28,4.26,3.84,4.26,3.84-5.11,6.39-1.27,7.67,6.39-3.41,6.39-3.41,2.56,4.26,6,2.56.85-5.54.85-5.54S377.35,423.26,376.92,421.56ZM368.4,428a1.75,1.75,0,1,1,2.13-1.7A1.95,1.95,0,0,1,368.4,428Zm-12.79,6.4c-.43-1.71-6.82.85-6.82.85s2.13-8.1-1.28-8.1-3.84,6-3.84,6-6.4-2.56-6.4,1.28,4.27,3.84,4.27,3.84-5.12,6.39-1.28,7.67,6.39-3.41,6.39-3.41,2.56,4.26,6,2.56.86-5.54.86-5.54S356,436.05,355.61,434.35Zm-8.53,6.39a1.75,1.75,0,1,1,2.13-1.7A1.95,1.95,0,0,1,347.08,440.74Zm28.14-31.55h4.69c3.41,0,5.54,3.84,5.54,3.84C378.2,415.16,375.22,409.19,375.22,409.19ZM324.91,433.5h4.69c3.41,0,5.54,3.83,5.54,3.83C327.89,439.47,324.91,433.5,324.91,433.5ZM352.27,406l2.74,3.81c2,2.78.11,6.74.11,6.74C349.16,411.87,352.27,406,352.27,406ZM380,429.84l2.73,3.81c2,2.77.11,6.74.11,6.74C376.88,435.74,380,429.84,380,429.84Zm-51.23-11.09,2.14-4.17c1.57-3,6-3.18,6-3.18C335.43,418.82,328.76,418.75,328.76,418.75Z" class="animable" style="fill:#fff;transform-origin:355.18px 413.611px"/></g><defs><filter id="active" height="200%"><feMorphology in="SourceAlpha" operator="dilate" radius="2" result="DILATED"/><feFlood flood-color="#32DFEC" flood-opacity="1" result="PINK"/><feComposite in="PINK" in2="DILATED" operator="in" result="OUTLINE"/><feMerge><feMergeNode in="OUTLINE"/><feMergeNode in="SourceGraphic"/></feMerge></filter><filter id="hover" height="200%"><feMorphology in="SourceAlpha" operator="dilate" radius="2" result="DILATED"/><feFlood flood-color="red" flood-opacity=".5" result="PINK"/><feComposite in="PINK" in2="DILATED" operator="in" result="OUTLINE"/><feMerge><feMergeNode in="OUTLINE"/><feMergeNode in="SourceGraphic"/></feMerge><feColorMatrix type="matrix" values="0 0 0 0 0 0 1 0 0 0 0 0 0 0 0 0 0 0 1 0"/></filter></defs></svg>